<?xml version="1.0" encoding="utf-8"?>
<!-- Generator: Adobe Illustrator 20.1.0, SVG Export Plug-In . SVG Version: 6.00 Build 0)  -->
<svg version="1.1" id="Layer_1" xmlns="http://www.w3.org/2000/svg" xmlns:xlink="http://www.w3.org/1999/xlink" x="0px" y="0px"
	 viewBox="0 0 605 96" style="enable-background:new 0 0 605 96;" xml:space="preserve">
<style type="text/css">
	.st0{fill:#B12025;}
	.st1{fill:#A71F25;}
	.st2{fill:none;stroke:#808080;stroke-width:1.111;stroke-miterlimit:10;}
	.st3{fill:#FFFFFF;}
</style>
<rect x="0.8" y="38.2" class="st0" width="378.2" height="32.8"/>
<path d="M1.3,87.2v-8h1.1v8c0,2.6,1.4,4.2,4,4.2c2.6,0,4-1.6,4-4.2v-8h1.1v8c0,3.2-1.7,5.2-5.1,5.2C3.1,92.4,1.3,90.4,1.3,87.2"/>
<path d="M21.1,92.2v-6.4c0-1.8-0.9-2.4-2.3-2.4c-1.2,0-2.5,0.8-3.1,1.6v7.1h-1v-9.4h1v1.4c0.7-0.8,2-1.7,3.4-1.7c1.9,0,3,0.9,3,3.1
	v6.6H21.1z"/>
<path d="M32.2,92.2v-1.5c-0.7,1-1.9,1.7-3.3,1.7c-2.5,0-4.2-1.9-4.2-4.9c0-3,1.7-5,4.2-5c1.4,0,2.5,0.7,3.3,1.8v-5.1h1v13H32.2z
	 M32.2,89.8v-4.7c-0.5-0.9-1.8-1.7-3.1-1.7c-2.1,0-3.3,1.8-3.3,4s1.2,4,3.3,4C30.5,91.5,31.7,90.7,32.2,89.8"/>
<path d="M35.9,87.5c0-2.7,1.9-4.9,4.6-4.9c2.9,0,4.5,2.3,4.5,5v0.3H37c0.1,2.1,1.5,3.8,3.7,3.8c1.2,0,2.3-0.5,3.1-1.3l0.5,0.7
	c-0.9,1-2.1,1.5-3.7,1.5C37.9,92.4,35.9,90.4,35.9,87.5 M40.4,83.4c-2.2,0-3.3,2-3.4,3.6h6.9C43.9,85.4,42.8,83.4,40.4,83.4"/>
<path d="M47.5,92.2v-9.4h1v1.6c0.8-1.1,1.9-1.8,3.2-1.8v1.1c-0.2,0-0.3,0-0.5,0c-1,0-2.3,0.9-2.7,1.7v6.9H47.5z"/>
<path d="M52.9,90.9l0.6-0.8c0.6,0.8,1.7,1.4,3.1,1.4c1.6,0,2.5-0.8,2.5-1.9c0-2.6-6-1.1-6-4.5c0-1.4,1.2-2.6,3.4-2.6
	c1.6,0,2.7,0.6,3.4,1.4l-0.6,0.7c-0.5-0.7-1.6-1.3-2.8-1.3c-1.5,0-2.4,0.7-2.4,1.7c0,2.4,6,0.9,6,4.6c0,1.5-1.2,2.8-3.5,2.8
	C55,92.4,53.9,92,52.9,90.9"/>
<path d="M62.9,90.4v-6.7h-1.6v-0.9h1.6v-2.6h1v2.6h1.9v0.9H64v6.6c0,0.8,0.3,1.3,1,1.3c0.4,0,0.8-0.2,1.1-0.4l0.4,0.8
	c-0.4,0.4-0.8,0.6-1.6,0.6C63.5,92.4,62.9,91.7,62.9,90.4"/>
<path d="M74.1,92.2v-1.1c-0.8,0.9-1.9,1.3-3.2,1.3c-1.6,0-3.3-1.1-3.3-3.1c0-2.1,1.7-3.1,3.3-3.1c1.3,0,2.4,0.4,3.2,1.3v-1.9
	c0-1.4-1.1-2.2-2.5-2.2c-1.2,0-2.1,0.4-3,1.4l-0.6-0.7c1-1.1,2.1-1.6,3.6-1.6c1.9,0,3.4,0.9,3.4,3v6.7H74.1z M74.1,90.3v-2.1
	c-0.7-0.9-1.7-1.3-2.9-1.3c-1.6,0-2.6,1-2.6,2.3c0,1.3,1,2.3,2.6,2.3C72.4,91.6,73.5,91.2,74.1,90.3"/>
<path d="M84.7,92.2v-6.4c0-1.8-0.9-2.4-2.3-2.4c-1.2,0-2.5,0.8-3.1,1.6v7.1h-1v-9.4h1v1.4c0.7-0.8,2-1.7,3.4-1.7c1.9,0,3,0.9,3,3.1
	v6.6H84.7z"/>
<path d="M95.8,92.2v-1.5c-0.7,1-1.9,1.7-3.3,1.7c-2.5,0-4.2-1.9-4.2-4.9c0-3,1.7-5,4.2-5c1.3,0,2.5,0.7,3.3,1.8v-5.1h1v13H95.8z
	 M95.8,89.8v-4.7c-0.5-0.9-1.8-1.7-3.1-1.7c-2.1,0-3.3,1.8-3.3,4s1.2,4,3.3,4C94.1,91.5,95.3,90.7,95.8,89.8"/>
<path d="M104.7,95c0.2,0.1,0.6,0.2,0.8,0.2c0.6,0,1.1-0.3,1.4-1.2l0.7-1.7l-4-9.5h1.1l3.4,8.3l3.4-8.3h1.2l-4.9,11.5
	c-0.5,1.2-1.3,1.8-2.4,1.8c-0.3,0-0.7-0.1-1-0.1L104.7,95z"/>
<path d="M114,87.5c0-2.8,1.8-4.9,4.5-4.9c2.8,0,4.6,2.2,4.6,4.9c0,2.8-1.8,5-4.6,5C115.8,92.4,114,90.2,114,87.5 M122,87.5
	c0-2.1-1.2-4-3.5-4c-2.2,0-3.4,1.9-3.4,4c0,2.1,1.3,4.1,3.4,4.1C120.8,91.5,122,89.6,122,87.5"/>
<path d="M132.1,92.2v-1.4c-0.8,0.9-2,1.6-3.4,1.6c-1.9,0-3-0.9-3-3v-6.7h1v6.4c0,1.8,0.9,2.3,2.3,2.3c1.2,0,2.4-0.7,3.1-1.6v-7.2h1
	v9.4H132.1z"/>
<path d="M136.3,92.2v-9.4h1v1.6c0.8-1.1,1.9-1.8,3.2-1.8v1.1c-0.2,0-0.3,0-0.5,0c-1,0-2.3,0.9-2.7,1.7v6.9H136.3z"/>
<path d="M147.7,90.4v-6.7h-1.6v-0.9h1.6v-2.6h1v2.6h1.9v0.9h-1.9v6.6c0,0.8,0.3,1.3,1,1.3c0.4,0,0.8-0.2,1.1-0.4l0.4,0.8
	c-0.4,0.4-0.8,0.6-1.6,0.6C148.3,92.4,147.7,91.7,147.7,90.4"/>
<path d="M152.4,87.5c0-2.7,1.9-4.9,4.6-4.9c2.9,0,4.5,2.3,4.5,5v0.3h-7.9c0.1,2.1,1.5,3.8,3.7,3.8c1.2,0,2.3-0.5,3.1-1.3l0.5,0.7
	c-0.9,1-2.1,1.5-3.7,1.5C154.4,92.4,152.4,90.4,152.4,87.5 M156.9,83.4c-2.2,0-3.3,2-3.4,3.6h6.9C160.3,85.4,159.3,83.4,156.9,83.4"
	/>
<path d="M163.2,90.9l0.6-0.8c0.6,0.8,1.7,1.4,3.1,1.4c1.6,0,2.5-0.8,2.5-1.9c0-2.6-6-1.1-6-4.5c0-1.4,1.2-2.6,3.4-2.6
	c1.6,0,2.7,0.6,3.4,1.4l-0.6,0.7c-0.5-0.7-1.6-1.3-2.8-1.3c-1.5,0-2.4,0.7-2.4,1.7c0,2.4,6,0.9,6,4.6c0,1.5-1.2,2.8-3.5,2.8
	C165.3,92.4,164.1,92,163.2,90.9"/>
<path d="M173.2,90.4v-6.7h-1.6v-0.9h1.6v-2.6h1v2.6h1.9v0.9h-1.9v6.6c0,0.8,0.3,1.3,1,1.3c0.4,0,0.8-0.2,1.1-0.4l0.4,0.8
	c-0.4,0.4-0.8,0.6-1.6,0.6C173.8,92.4,173.2,91.7,173.2,90.4"/>
<path d="M177.6,90.9l0.6-0.8c0.6,0.8,1.7,1.4,3.1,1.4c1.6,0,2.5-0.8,2.5-1.9c0-2.6-6-1.1-6-4.5c0-1.4,1.2-2.6,3.4-2.6
	c1.6,0,2.7,0.6,3.4,1.4l-0.6,0.7c-0.5-0.7-1.6-1.3-2.8-1.3c-1.5,0-2.4,0.7-2.4,1.7c0,2.4,6,0.9,6,4.6c0,1.5-1.2,2.8-3.5,2.8
	C179.7,92.4,178.5,92,177.6,90.9"/>
<path d="M187.1,91.5c0-0.4,0.4-0.8,0.9-0.8c0.5,0,0.9,0.4,0.9,0.8c0,0.5-0.4,0.9-0.9,0.9C187.4,92.4,187.1,92,187.1,91.5"/>
<polygon points="196.8,92.2 196.8,79.1 205,79.1 205,80.2 197.9,80.2 197.9,85 204.9,85 204.9,86 197.9,86 197.9,91.2 205,91.2 
	205,92.2 "/>
<path d="M219,92.2v-6.6c0-1.3-0.6-2.2-1.9-2.2c-1,0-2.2,0.7-2.7,1.6v7.2h-1v-6.6c0-1.3-0.5-2.2-1.9-2.2c-1,0-2.1,0.8-2.7,1.6v7.1h-1
	v-9.4h1v1.4c0.4-0.6,1.7-1.7,3.1-1.7c1.5,0,2.3,0.9,2.5,1.8c0.5-0.9,1.8-1.8,3.1-1.8c1.7,0,2.6,1,2.6,2.9v6.8H219z"/>
<path d="M224.2,90.7v5.1h-1v-13h1v1.5c0.7-1,1.9-1.7,3.3-1.7c2.5,0,4.2,1.9,4.2,4.9c0,3-1.7,5-4.2,5C226.2,92.4,225,91.7,224.2,90.7
	 M230.6,87.5c0-2.3-1.2-4-3.3-4c-1.3,0-2.6,0.8-3.1,1.7v4.7c0.5,0.9,1.8,1.7,3.1,1.7C229.4,91.5,230.6,89.8,230.6,87.5"/>
<path d="M233.7,87.5c0-2.8,1.8-4.9,4.5-4.9c2.8,0,4.6,2.2,4.6,4.9c0,2.8-1.8,5-4.6,5C235.5,92.4,233.7,90.2,233.7,87.5 M241.7,87.5
	c0-2.1-1.2-4-3.5-4c-2.2,0-3.4,1.9-3.4,4c0,2.1,1.3,4.1,3.4,4.1C240.5,91.5,241.7,89.6,241.7,87.5"/>
<polygon points="253.6,92.2 250.9,84.1 248.3,92.2 247.3,92.2 244.2,82.7 245.3,82.7 247.8,90.8 250.5,82.7 251.4,82.7 254,90.8 
	256.5,82.7 257.6,82.7 254.5,92.2 "/>
<path d="M259,87.5c0-2.7,1.9-4.9,4.6-4.9c2.9,0,4.5,2.3,4.5,5v0.3h-7.9c0.1,2.1,1.5,3.8,3.7,3.8c1.2,0,2.3-0.5,3.1-1.3l0.5,0.7
	c-0.9,1-2.1,1.5-3.7,1.5C261,92.4,259,90.4,259,87.5 M263.5,83.4c-2.2,0-3.3,2-3.4,3.6h6.9C267,85.4,265.9,83.4,263.5,83.4"/>
<path d="M270.6,92.2v-9.4h1v1.6c0.8-1.1,1.9-1.8,3.2-1.8v1.1c-0.2,0-0.3,0-0.5,0c-1,0-2.3,0.9-2.7,1.7v6.9H270.6z"/>
<path d="M281.5,95c0.2,0.1,0.6,0.2,0.8,0.2c0.6,0,1.1-0.3,1.4-1.2l0.7-1.7l-4-9.5h1.1L285,91l3.4-8.3h1.2l-4.9,11.5
	c-0.5,1.2-1.3,1.8-2.4,1.8c-0.3,0-0.7-0.1-1-0.1L281.5,95z"/>
<path d="M290.8,87.5c0-2.8,1.8-4.9,4.5-4.9c2.8,0,4.6,2.2,4.6,4.9c0,2.8-1.8,5-4.6,5C292.5,92.4,290.8,90.2,290.8,87.5 M298.8,87.5
	c0-2.1-1.2-4-3.5-4c-2.2,0-3.4,1.9-3.4,4c0,2.1,1.3,4.1,3.4,4.1C297.5,91.5,298.8,89.6,298.8,87.5"/>
<path d="M308.9,92.2v-1.4c-0.8,0.9-2,1.6-3.4,1.6c-1.9,0-3-0.9-3-3v-6.7h1v6.4c0,1.8,0.9,2.3,2.3,2.3c1.2,0,2.4-0.7,3.1-1.6v-7.2h1
	v9.4H308.9z"/>
<path d="M313.1,92.2v-9.4h1v1.6c0.8-1.1,1.9-1.8,3.2-1.8v1.1c-0.2,0-0.3,0-0.5,0c-1,0-2.3,0.9-2.7,1.7v6.9H313.1z"/>
<path d="M330.7,92.2v-6.4c0-1.8-0.9-2.3-2.3-2.3c-1.2,0-2.5,0.8-3.1,1.6v7.1h-1v-13h1v5c0.7-0.8,2-1.7,3.4-1.7c1.9,0,3,0.9,3,3v6.7
	H330.7z"/>
<path d="M334.3,87.5c0-2.7,1.9-4.9,4.6-4.9c2.9,0,4.5,2.3,4.5,5v0.3h-7.9c0.1,2.1,1.5,3.8,3.7,3.8c1.2,0,2.3-0.5,3.1-1.3l0.5,0.7
	c-0.9,1-2.1,1.5-3.7,1.5C336.3,92.4,334.3,90.4,334.3,87.5 M338.9,83.4c-2.2,0-3.3,2-3.4,3.6h6.9C342.3,85.4,341.3,83.4,338.9,83.4"
	/>
<path d="M352,92.2v-1.1c-0.8,0.9-1.9,1.3-3.2,1.3c-1.6,0-3.3-1.1-3.3-3.1c0-2.1,1.7-3.1,3.3-3.1c1.3,0,2.4,0.4,3.2,1.3v-1.9
	c0-1.4-1.1-2.2-2.5-2.2c-1.2,0-2.1,0.4-3,1.4l-0.6-0.7c1-1.1,2.1-1.6,3.6-1.6c1.9,0,3.4,0.9,3.4,3v6.7H352z M352,90.3v-2.1
	c-0.7-0.9-1.7-1.3-2.9-1.3c-1.6,0-2.6,1-2.6,2.3c0,1.3,1,2.3,2.6,2.3C350.3,91.6,351.3,91.2,352,90.3"/>
<rect x="356.2" y="79.1" width="1" height="13"/>
<path d="M360.6,90.4v-6.7H359v-0.9h1.6v-2.6h1v2.6h1.9v0.9h-1.9v6.6c0,0.8,0.3,1.3,1,1.3c0.5,0,0.8-0.2,1.1-0.4l0.4,0.8
	c-0.4,0.4-0.8,0.6-1.6,0.6C361.2,92.4,360.6,91.7,360.6,90.4"/>
<path d="M372.1,92.2v-6.4c0-1.8-0.9-2.3-2.3-2.3c-1.2,0-2.5,0.8-3.1,1.6v7.1h-1v-13h1v5c0.7-0.8,2-1.7,3.4-1.7c1.9,0,3,0.9,3,3v6.7
	H372.1z"/>
<path d="M376,91.5c0-0.4,0.4-0.8,0.9-0.8s0.9,0.4,0.9,0.8c0,0.5-0.4,0.9-0.9,0.9S376,92,376,91.5"/>
<path class="st1" d="M467.6,71.8h-8.4c-1.4-4.9-2.8-9.8-4.1-14.7c-0.4-1.3-0.9-1.8-2.3-1.8c-5.9,0.1-11.8,0.1-17.7,0
	c-1.3,0-2,0.4-2.7,1.5c-2.6,4.2-5.5,8.2-8,12.5c-1.4,2.4-3,3-5.6,2.3c0.3-0.6,0.6-1.1,0.9-1.6c10.2-15.7,20.5-31.5,30.7-47.2
	c0.6-0.8,1.1-1.9,2.3-1.4c0.6,0.3,1.1,1.2,1.3,1.9c3.6,12.5,7.1,25,10.7,37.4c0.1,0.4,0.3,0.8,0.5,1.6c0.5-0.7,0.9-1.2,1.2-1.7
	c8.1-12.5,16.3-25,24.4-37.6c0.1-0.2,0.2-0.5,0.4-0.6c0.6-0.4,1.3-1,1.9-1c0.4,0,1,0.9,1.2,1.5c3,10.2,5.9,20.5,8.8,30.8
	c1.5,5.4,3.1,10.7,4.6,16.1c0.2,0.6,0.3,1.2,0.5,1.9h-8.3c-1.3-4.5-2.6-9.1-3.9-13.6c-0.9-3.1-0.1-2.7-3.6-2.7c-5.6,0-11.2,0-16.8,0
	c-1.2,0-2,0.3-2.6,1.4c-1.6,2.7-3.3,5.3-5.1,7.9c-1.2,1.6-1.7,3.1-0.8,5C467.4,70.3,467.4,71,467.6,71.8 M453.7,52.2
	c-1.8-6.4-3.6-12.8-5.6-19.5c-4.4,6.8-8.5,13.1-12.7,19.5H453.7z M475.9,52.2h18.2c-1.8-6.5-3.6-12.8-5.5-19.5
	C484.3,39.4,480.2,45.6,475.9,52.2"/>
<path class="st1" d="M605,34.1c-1.4,0.8-2.5,1.5-3.9,2.3c-0.2-0.5-0.5-0.9-0.6-1.3c-3.7-8.9-9.8-12.1-19.1-9.4
	c-10.3,3-16,10.3-18.4,20.5c-0.9,3.6-1.1,7.3-0.3,11c2.1,9.5,12.2,14.9,21.6,11.5c4.6-1.7,8.2-4.5,13.1-10.4
	c0.9,0.7,1.9,1.3,3.2,2.3c-2.4,2.2-4.5,4.5-6.9,6.4c-7.2,5.6-15.4,7.3-24.2,5.5c-12.3-2.5-19-13.1-16.3-26
	c3.7-17.6,22.7-28.1,38.1-24.3C597.7,23.8,602.1,27.9,605,34.1"/>
<path class="st1" d="M557.6,34.1c-1.3,0.8-2.5,1.5-3.9,2.3c-0.2-0.5-0.4-0.9-0.6-1.4c-3.6-8.9-9.9-12-19.2-9.4
	c-10.5,3-16.2,10.5-18.4,20.9c-0.7,3.3-0.8,6.9-0.2,10.2c1.8,9.9,12,15.3,21.5,11.8c4.8-1.8,8.6-4.9,11.8-8.8c0.4-0.5,0.8-1,1.3-1.6
	c1,0.7,1.9,1.4,3.3,2.4c-2.2,2.1-4.2,4.2-6.4,6c-7.3,5.8-15.6,7.7-24.6,5.9C510,70.2,503.3,59.7,505.7,47
	c3.4-17.8,22.6-28.6,38.1-24.8C550.3,23.7,554.8,27.9,557.6,34.1"/>
<line class="st2" x1="402" y1="0.5" x2="402" y2="94"/>
<g>
	<path class="st3" d="M87.8,55.8l-4.1-9.5h3.7l2.6,6.4l5.4-6.4h4.1l-8.2,9.5l-1.4,6.6h-3.4L87.8,55.8z"/>
	<path class="st3" d="M102.2,50.4c3.7,0,5.8,2.3,5.8,5.3c0,3.6-2.8,6.9-6.7,6.9c-3.7,0-5.7-2.2-5.7-5.3
		C95.5,53.7,98.3,50.4,102.2,50.4z M102.1,53.1c-2.1,0-3.5,2-3.5,4c0,1.7,1,2.7,2.7,2.7c2,0,3.4-1.9,3.4-4
		C104.8,54.2,103.7,53.1,102.1,53.1z"/>
	<path class="st3" d="M113.3,57.7c0,0.2-0.1,0.5-0.1,0.7c0,1.1,0.9,1.5,1.9,1.5s2.1-0.7,2.8-1.4l1.7-7.8h3l-2.6,11.6h-3l0.3-1.5
		c-0.9,0.9-2.2,1.8-3.9,1.8c-2.2,0-3.6-1.2-3.6-3c0-0.2,0.1-0.7,0.1-0.9l1.8-8h3.1L113.3,57.7z"/>
	<path class="st3" d="M126.1,50.7h3l-0.4,1.5c1-1.1,2.3-1.8,4.1-1.8l-0.6,3c-0.2,0-0.6-0.1-1.1-0.1c-1.1,0-2.2,0.6-2.9,1.4l-1.7,7.6
		h-3L126.1,50.7z"/>
	<path class="st3" d="M145.8,49.3h-4.7l0.7-3h12.8l-0.6,3h-4.7l-2.9,13H143L145.8,49.3z"/>
	<path class="st3" d="M154.6,50.7h3l-0.4,1.5c1-1.1,2.3-1.8,4.1-1.8l-0.6,3c-0.2,0-0.6-0.1-1.1-0.1c-1.1,0-2.2,0.6-2.9,1.4l-1.7,7.6
		h-3L154.6,50.7z"/>
	<path class="st3" d="M165.1,57.7c0,0.2-0.1,0.5-0.1,0.7c0,1.1,0.9,1.5,1.9,1.5s2.1-0.7,2.8-1.4l1.7-7.8h3l-2.6,11.6h-3l0.3-1.5
		c-0.9,0.9-2.2,1.8-3.9,1.8c-2.2,0-3.6-1.2-3.6-3c0-0.2,0.1-0.7,0.1-0.9l1.8-8h3.1L165.1,57.7z"/>
	<path class="st3" d="M176.6,58.5c0.7,0.8,2.4,1.8,4.1,1.8c1,0,1.7-0.6,1.7-1.2c0-0.7-1-1.1-2.1-1.4c-1.7-0.6-3.7-1.3-3.7-3.3
		c0-2,1.7-3.9,4.8-3.9c2,0,3.8,0.7,4.9,1.9l-1.5,1.9c-0.6-0.7-2-1.5-3.4-1.5c-1.1,0-1.7,0.5-1.7,1.1c0,0.6,0.9,0.9,2,1.3
		c1.7,0.5,3.9,1.2,3.9,3.4c0,2.2-1.8,4.1-5,4.1c-2.1,0-4.2-0.7-5.5-2.1L176.6,58.5z"/>
	<path class="st3" d="M188.6,59.3l1.3-5.9h-1.9l0.6-2.6h1.9l0.7-3.2h3.1l-0.7,3.2h2.4l-0.6,2.6h-2.4l-1.1,5c0,0.1,0,0.3,0,0.5
		c0,0.6,0.4,1,1.1,1c0.3,0,0.7-0.1,0.8-0.2l0.1,2.4c-0.5,0.3-1.2,0.5-1.9,0.5c-2.1,0-3.5-0.8-3.5-2.5
		C188.5,59.9,188.5,59.6,188.6,59.3z"/>
	<path class="st3" d="M202.9,50.4c3,0,5.2,1.9,5.2,5.2c0,0.7-0.1,1.5-0.2,1.9h-8.6v0.3c0,1,1,2.4,3.2,2.4c1,0,2.2-0.3,2.9-0.9l1,2.1
		c-1.1,0.8-2.7,1.2-4.1,1.2c-3.6,0-6-2-6-5.2C196.2,53.6,199.1,50.4,202.9,50.4z M205.4,55.2c0-1.2-0.8-2.3-2.7-2.3
		c-1.6,0-2.9,1.3-3.1,2.6h5.8V55.2z"/>
	<path class="st3" d="M221,46.3h3.1l-3.6,16h-3.1l0.3-1.4c-1,1.2-2.1,1.7-3.5,1.7c-2.6,0-4.4-1.7-4.4-4.8c0-3.5,2.2-7.4,6.1-7.4
		c1.5,0,2.9,0.7,3.7,1.8L221,46.3z M215.7,59.9c1.1,0,2-0.6,2.7-1.4l0.9-4c-0.5-0.8-1.5-1.3-2.7-1.3c-2,0-3.4,1.9-3.4,4
		C213.1,58.8,214.2,59.9,215.7,59.9z"/>
	<path class="st3" d="M241,46c3.4,0,5.6,1.8,6.6,3.9l-3.1,1.3c-0.6-1.3-2.2-2.2-3.9-2.2c-3,0-5.6,2.6-5.6,6.1c0,2.4,1.7,4.4,4.5,4.4
		c1.4,0,2.4-0.5,3.2-1.2l0.4-1.9h-4.3l0.7-2.9h7.7l-1.4,6.2c-1.6,1.8-3.9,2.9-6.5,2.9c-4.4,0-7.9-2.8-7.9-7.2
		C231.4,50,235.5,46,241,46z"/>
	<path class="st3" d="M252.3,57.7c0,0.2-0.1,0.5-0.1,0.7c0,1.1,0.9,1.5,1.9,1.5s2.1-0.7,2.8-1.4l1.7-7.8h3l-2.6,11.6h-3l0.3-1.5
		c-0.9,0.9-2.2,1.8-3.9,1.8c-2.2,0-3.6-1.2-3.6-3c0-0.2,0.1-0.7,0.1-0.9l1.8-8h3.1L252.3,57.7z"/>
	<path class="st3" d="M265.1,50.7h3l-2.6,11.6h-3L265.1,50.7z M267.6,45.6c1,0,1.7,0.7,1.7,1.6c0,1.3-1.1,2.1-2,2.1
		c-1,0-1.7-0.7-1.7-1.6C265.5,46.3,266.7,45.6,267.6,45.6z"/>
	<path class="st3" d="M280.6,46.3h3.1l-3.6,16H277l0.3-1.4c-1,1.2-2.1,1.7-3.5,1.7c-2.6,0-4.4-1.7-4.4-4.8c0-3.5,2.2-7.4,6.1-7.4
		c1.5,0,2.9,0.7,3.7,1.8L280.6,46.3z M275.3,59.9c1.1,0,2-0.6,2.7-1.4l0.9-4c-0.5-0.8-1.5-1.3-2.7-1.3c-2,0-3.4,1.9-3.4,4
		C272.7,58.8,273.8,59.9,275.3,59.9z"/>
	<path class="st3" d="M290.7,50.4c3,0,5.2,1.9,5.2,5.2c0,0.7-0.1,1.5-0.2,1.9h-8.6v0.3c0,1,1,2.4,3.2,2.4c1,0,2.2-0.3,2.9-0.9l1,2.1
		c-1.1,0.8-2.7,1.2-4.1,1.2c-3.6,0-6-2-6-5.2C284,53.6,286.9,50.4,290.7,50.4z M293.2,55.2c0-1.2-0.8-2.3-2.7-2.3
		c-1.6,0-2.9,1.3-3.1,2.6h5.8V55.2z"/>
</g>
<polygon class="st0" points="0,0.5 6.2,0.5 6.2,24 18.4,24 18.4,29.4 0,29.4 "/>
<path class="st0" d="M43.1,24.4H30.2l-1.8,5h-6.8L32.8,0.5h7.7l11.1,28.9h-6.7L43.1,24.4z M31.8,19.1h9.6L36.6,5.8L31.8,19.1z"/>
<path class="st0" d="M55.3,0.5h15.2c5.5,0,8.3,3.5,8.3,7.4c0,3.6-2.3,6.1-5,6.6c3.1,0.5,5.5,3.5,5.5,7.1c0,4.3-2.9,7.8-8.4,7.8H55.3
	V0.5z M69.2,12.1c2.1,0,3.4-1.3,3.4-3.2c0-1.8-1.3-3.2-3.4-3.2h-7.7v6.4H69.2z M69.4,24.1c2.3,0,3.7-1.3,3.7-3.4
	c0-1.8-1.3-3.4-3.7-3.4h-7.9v6.8H69.4z"/>
<polygon class="st0" points="98.8,5.9 90.4,5.9 90.4,0.5 113.4,0.5 113.4,5.9 105,5.9 105,29.4 98.8,29.4 "/>
<polygon class="st0" points="117.3,0.5 137.8,0.5 137.8,5.8 123.5,5.8 123.5,12 137.5,12 137.5,17.3 123.5,17.3 123.5,24.1 
	137.8,24.1 137.8,29.4 117.3,29.4 "/>
<path class="st0" d="M145,20.6c2,2.1,5.2,3.9,9.2,3.9c3.4,0,5-1.6,5-3.3c0-2.2-2.5-2.9-5.9-3.7c-4.7-1.1-10.8-2.4-10.8-8.8
	c0-4.8,4.2-8.7,11-8.7c4.6,0,8.4,1.4,11.3,4l-3.4,4.5c-2.3-2.2-5.5-3.2-8.3-3.2c-2.8,0-4.2,1.2-4.2,2.9c0,1.9,2.4,2.6,5.8,3.3
	c4.8,1.1,10.8,2.5,10.8,8.9c0,5.3-3.8,9.3-11.6,9.3c-5.5,0-9.5-1.9-12.2-4.6L145,20.6z"/>
<polygon class="st0" points="176,5.9 167.5,5.9 167.5,0.5 190.6,0.5 190.6,5.9 182.2,5.9 182.2,29.4 176,29.4 "/>
<path class="st0" d="M195.6,20.6c2,2.1,5.2,3.9,9.2,3.9c3.4,0,5-1.6,5-3.3c0-2.2-2.5-2.9-5.9-3.7c-4.7-1.1-10.8-2.4-10.8-8.8
	c0-4.8,4.2-8.7,11-8.7c4.6,0,8.4,1.4,11.3,4L212,8.6c-2.3-2.2-5.5-3.2-8.3-3.2c-2.8,0-4.2,1.2-4.2,2.9c0,1.9,2.4,2.6,5.8,3.3
	c4.8,1.1,10.8,2.5,10.8,8.9c0,5.3-3.8,9.3-11.6,9.3c-5.5,0-9.5-1.9-12.2-4.6L195.6,20.6z"/>
<path d="M245,0c8.5,0,14.3,6.4,14.3,15c0,8.5-5.8,15-14.3,15c-8.6,0-14.3-6.4-14.3-15C230.7,6.4,236.4,0,245,0 M245,3.2
	c-6.5,0-10.6,5-10.6,11.7c0,6.7,4.1,11.7,10.6,11.7c6.5,0,10.6-5,10.6-11.7C255.6,8.2,251.5,3.2,245,3.2"/>
<polygon points="268.6,6.1 268.6,29.4 265,29.4 265,0.5 268.7,0.5 285.3,23.3 285.3,0.5 288.9,0.5 288.9,29.4 285.4,29.4 "/>
<polygon points="295.7,0.5 299.3,0.5 299.3,26.2 312.7,26.2 312.7,29.4 295.7,29.4 "/>
<rect x="317.8" y="0.5" width="3.6" height="28.9"/>
<polygon points="331.7,6.1 331.7,29.4 328.1,29.4 328.1,0.5 331.8,0.5 348.5,23.3 348.5,0.5 352.1,0.5 352.1,29.4 348.6,29.4 "/>
<polygon points="358.8,0.5 377.7,0.5 377.7,3.7 362.4,3.7 362.4,13 377.4,13 377.4,16.2 362.4,16.2 362.4,26.2 377.7,26.2 
	377.7,29.4 358.8,29.4 "/>
</svg>
