<?xml version="1.0" standalone="no"?>
<!DOCTYPE svg PUBLIC "-//W3C//DTD SVG 20010904//EN"
 "http://www.w3.org/TR/2001/REC-SVG-20010904/DTD/svg10.dtd">
<svg version="1.0" xmlns="http://www.w3.org/2000/svg"
 width="16.000000pt" height="16.000000pt" viewBox="0 0 16.000000 16.000000"
 preserveAspectRatio="xMidYMid meet">
<metadata>
Created by potrace 1.11, written by Peter Selinger 2001-2013
</metadata>
<g transform="translate(0.000000,16.000000) scale(0.002286,-0.002286)"
fill="#000000" stroke="none">
<path d="M0 3500 l0 -3500 3500 0 3500 0 0 3500 0 3500 -3500 0 -3500 0 0
-3500z m5389 1034 c355 -52 636 -251 788 -559 111 -223 138 -531 68 -792 -131
-495 -586 -795 -1140 -752 -566 45 -965 480 -965 1054 0 679 562 1150 1249
1049z m-4109 -859 l0 -835 440 0 440 0 0 -190 0 -190 -655 0 -655 0 0 1025 0
1025 215 0 215 0 0 -835z m2690 650 l0 -185 -300 0 -300 0 0 -840 0 -840 -220
0 -220 0 -2 838 -3 837 -297 3 -298 2 0 185 0 185 820 0 820 0 0 -185z"/>
<path d="M5140 4159 c-145 -14 -261 -69 -365 -173 -126 -127 -186 -288 -186
-501 0 -212 57 -368 184 -501 283 -299 805 -221 985 146 54 109 72 181 79 307
25 452 -274 762 -697 722z"/>
</g>
</svg>
