<?xml version="1.0" encoding="utf-8"?>
<!-- Generator: Adobe Illustrator 20.1.0, SVG Export Plug-In . SVG Version: 6.00 Build 0)  -->
<svg version="1.1" id="Layer_1" xmlns="http://www.w3.org/2000/svg" xmlns:xlink="http://www.w3.org/1999/xlink" x="0px" y="0px"
	 viewBox="0 0 105 29.3" style="enable-background:new 0 0 105 29.3;" xml:space="preserve">
<style type="text/css">
	.st0{fill:#A71E25;}
</style>
<g>
	<path class="st0" d="M27.5,28.5h-4.7c-0.8-2.8-1.6-5.5-2.3-8.3c-0.2-0.8-0.5-1-1.3-1c-3.3,0-6.7,0-10,0c-0.7,0-1.2,0.2-1.5,0.8
		c-1.5,2.4-3.1,4.6-4.5,7.1c-0.8,1.3-1.7,1.7-3.2,1.3c0.2-0.3,0.3-0.6,0.5-0.9C6.2,18.7,12,9.8,17.7,0.9C18,0.4,18.3-0.2,19,0.1
		c0.3,0.2,0.6,0.7,0.7,1.1c2,7,4,14.1,6,21.1c0.1,0.2,0.2,0.5,0.3,0.9c0.3-0.4,0.5-0.7,0.7-1c4.6-7,9.2-14.1,13.8-21.2
		c0.1-0.1,0.1-0.3,0.2-0.3c0.4-0.2,0.7-0.6,1.1-0.5c0.2,0,0.6,0.5,0.7,0.8c1.7,5.8,3.3,11.6,4.9,17.3c0.9,3,1.7,6.1,2.6,9.1
		c0.1,0.3,0.2,0.7,0.3,1.1h-4.7c-0.7-2.5-1.4-5.1-2.2-7.7c-0.5-1.7-0.1-1.5-2-1.5c-3.2,0-6.3,0-9.5,0c-0.7,0-1.1,0.2-1.5,0.8
		c-0.9,1.5-1.9,3-2.9,4.4c-0.7,0.9-1,1.8-0.4,2.8C27.4,27.6,27.4,28,27.5,28.5 M19.6,17.4c-1-3.6-2-7.2-3.1-11
		c-2.5,3.8-4.8,7.4-7.2,11H19.6z M32.2,17.4h10.3c-1-3.7-2.1-7.2-3.1-11C36.9,10.2,34.6,13.7,32.2,17.4"/>
	<path class="st0" d="M105,7.2c-0.8,0.5-1.4,0.9-2.2,1.3c-0.1-0.3-0.3-0.5-0.4-0.8c-2.1-5-5.6-6.8-10.8-5.3
		c-5.8,1.7-9,5.8-10.4,11.5c-0.5,2-0.6,4.1-0.2,6.2c1.2,5.4,6.9,8.4,12.2,6.5c2.6-0.9,4.6-2.5,7.4-5.9c0.5,0.4,1,0.8,1.8,1.3
		c-1.3,1.3-2.5,2.6-3.9,3.6c-4,3.3-8.6,4.3-13.6,3.3c-7-1.4-10.7-7.4-9.2-14.6c2.1-10,12.8-15.9,21.5-13.8
		C100.9,1.4,103.4,3.7,105,7.2"/>
	<path class="st0" d="M78.2,7.2c-0.7,0.4-1.4,0.9-2.2,1.3c-0.1-0.3-0.3-0.5-0.4-0.8c-2-5-5.6-6.8-10.8-5.3c-5.8,1.8-9.1,6-10.3,11.9
		c-0.4,1.9-0.5,3.9-0.1,5.8c1,5.6,6.8,8.6,12.2,6.7c2.7-1,4.8-2.8,6.6-5c0.2-0.3,0.4-0.6,0.7-0.9c0.5,0.4,1.1,0.8,1.9,1.3
		c-1.3,1.2-2.4,2.4-3.6,3.4c-4.1,3.3-8.8,4.3-13.9,3.3c-6.9-1.3-10.7-7.2-9.3-14.4c1.9-10.1,12.7-16.1,21.5-14
		C74.1,1.4,76.7,3.7,78.2,7.2"/>
</g>
</svg>
