<?xml version="1.0" encoding="utf-8"?>
<!-- Generator: Adobe Illustrator 20.1.0, SVG Export Plug-In . SVG Version: 6.00 Build 0)  -->
<svg version="1.1" id="Layer_1" xmlns="http://www.w3.org/2000/svg" xmlns:xlink="http://www.w3.org/1999/xlink" x="0px" y="0px"
	 viewBox="0 0 142.9 132.2" style="enable-background:new 0 0 142.9 132.2;" xml:space="preserve">
<style type="text/css">
	.st0{fill:#231F20;}
</style>
<g>
	<path class="st0" d="M53.1,74.6v57.6H0V86.7c0-24.6,2.9-42.4,8.8-53.4C16.5,18.6,28.7,7.5,45.4,0l12.1,19.3
		C47.5,23.5,40,29.8,35.2,38.1c-4.8,8.4-7.4,20.5-8,36.5H53.1z M138.5,74.6v57.6H85.4V86.7c0-24.6,2.9-42.4,8.8-53.4
		c7.7-14.7,19.9-25.8,36.6-33.3l12.1,19.3c-10.1,4.2-17.5,10.5-22.3,18.9c-4.8,8.4-7.4,20.5-8,36.5H138.5z"/>
</g>
</svg>
