<svg xmlns="http://www.w3.org/2000/svg" viewBox="0 0 101.46 22.38"><defs><style>.cls-1{fill:#231f20;}.cls-2{fill:#b02025;}</style></defs><title>board_approved</title><g id="Layer_2" data-name="Layer 2"><g id="Layer_1-2" data-name="Layer 1"><path class="cls-1" d="M26.54.27h3.76a2.89,2.89,0,0,1,2,.65A2.4,2.4,0,0,1,33,2.77,2.52,2.52,0,0,1,32.77,4a2.22,2.22,0,0,1-.81.82,3.08,3.08,0,0,1,.92.31,2,2,0,0,1,.62.52,2,2,0,0,1,.34.7,3.23,3.23,0,0,1,.1.83,2.91,2.91,0,0,1-.24,1.21,2.48,2.48,0,0,1-.67.89A2.86,2.86,0,0,1,32,9.81,4.93,4.93,0,0,1,30.6,10H26.54Zm2.53,3.81h.46q1.19,0,1.19-.94T29.53,2.2h-.46Zm0,3.94h.55A2.82,2.82,0,0,0,31,7.78.85.85,0,0,0,31.4,7,.85.85,0,0,0,31,6.21,2.83,2.83,0,0,0,29.62,6h-.55Z"/><path class="cls-1" d="M35,5.13A5,5,0,0,1,38.22.39a6.18,6.18,0,0,1,4.34,0,5.09,5.09,0,0,1,1.71,1.09,5,5,0,0,1,1.11,1.63,5.08,5.08,0,0,1,.4,2,5.08,5.08,0,0,1-.4,2,5,5,0,0,1-1.11,1.63,5.11,5.11,0,0,1-1.71,1.09,6.18,6.18,0,0,1-4.34,0A5,5,0,0,1,35,5.13m2.64,0a2.59,2.59,0,0,0,.22,1.07,2.67,2.67,0,0,0,1.46,1.41,2.81,2.81,0,0,0,3-.56,2.65,2.65,0,0,0,.6-.85,2.71,2.71,0,0,0,0-2.14,2.66,2.66,0,0,0-.6-.85,2.83,2.83,0,0,0-3-.56,2.67,2.67,0,0,0-1.46,1.41,2.59,2.59,0,0,0-.22,1.07"/><path class="cls-1" d="M53.33,8.3H49.72L49.14,10H46.45L50.15.27h2.76L56.6,10H53.91Zm-.67-1.92L51.53,3.14,50.39,6.38Z"/><path class="cls-1" d="M65.79,10H62.65L60.24,6.25V10H57.71V.27h3.93a3.85,3.85,0,0,1,1.42.24,2.68,2.68,0,0,1,1.59,1.6,3.35,3.35,0,0,1,.2,1.16,2.85,2.85,0,0,1-.54,1.8A2.69,2.69,0,0,1,62.74,6ZM60.24,4.61h.48a1.84,1.84,0,0,0,1.15-.31,1.06,1.06,0,0,0,.4-.89,1.06,1.06,0,0,0-.4-.89,1.84,1.84,0,0,0-1.15-.31h-.48Z"/><path class="cls-1" d="M66.85.27h3.74a4.41,4.41,0,0,1,1.86.4A5.07,5.07,0,0,1,74,1.73a4.94,4.94,0,0,1,1,1.55A4.77,4.77,0,0,1,75,7a4.91,4.91,0,0,1-1,1.55,5,5,0,0,1-1.52,1.07,4.44,4.44,0,0,1-1.87.4H66.85Zm2.53,7.58H70a3.15,3.15,0,0,0,1.17-.21A2.5,2.5,0,0,0,72,7.07a2.42,2.42,0,0,0,.54-.86,3.06,3.06,0,0,0,.19-1.09A3,3,0,0,0,72.53,4,2.49,2.49,0,0,0,72,3.18a2.52,2.52,0,0,0-.87-.57A3.12,3.12,0,0,0,70,2.41h-.58Z"/><path class="cls-2" d="M32.5,20.42H28.89l-.58,1.69H25.62l3.7-9.72h2.76l3.7,9.72H33.08Zm-.67-1.92-1.13-3.23-1.13,3.23Z"/><path class="cls-2" d="M39.4,22.11H36.88V12.4h4a3.44,3.44,0,0,1,2.51.85,3.2,3.2,0,0,1,.87,2.4A3.19,3.19,0,0,1,43.4,18a3.44,3.44,0,0,1-2.51.85H39.4Zm0-5.26h.84q1.39,0,1.39-1.21t-1.39-1.21H39.4Z"/><path class="cls-2" d="M48.14,22.11H45.61V12.4h4a3.44,3.44,0,0,1,2.51.85,3.2,3.2,0,0,1,.87,2.4,3.2,3.2,0,0,1-.87,2.4,3.44,3.44,0,0,1-2.51.85H48.14Zm0-5.26H49q1.39,0,1.39-1.21T49,14.43h-.84Z"/><path class="cls-2" d="M62.43,22.11H59.29l-2.41-3.74v3.74H54.35V12.4h3.93a3.85,3.85,0,0,1,1.42.24,2.67,2.67,0,0,1,1.59,1.6,3.35,3.35,0,0,1,.2,1.16A2.85,2.85,0,0,1,61,17.2a2.7,2.7,0,0,1-1.58.93Zm-5.55-5.37h.48a1.84,1.84,0,0,0,1.15-.31,1.19,1.19,0,0,0,0-1.78,1.84,1.84,0,0,0-1.15-.31h-.48Z"/><path class="cls-2" d="M63,17.26a5.08,5.08,0,0,1,.4-2,5,5,0,0,1,2.8-2.72,6.17,6.17,0,0,1,4.34,0,5.11,5.11,0,0,1,1.71,1.09,5,5,0,0,1,1.12,1.63,5.3,5.3,0,0,1,0,4,5,5,0,0,1-1.12,1.63A5.12,5.12,0,0,1,70.59,22a6.17,6.17,0,0,1-4.34,0A5,5,0,0,1,63,17.26m2.64,0a2.59,2.59,0,0,0,.22,1.07,2.67,2.67,0,0,0,1.46,1.41,2.81,2.81,0,0,0,3-.56,2.64,2.64,0,0,0,.6-.85,2.71,2.71,0,0,0,0-2.14,2.65,2.65,0,0,0-.6-.85,2.83,2.83,0,0,0-3-.56,2.67,2.67,0,0,0-1.46,1.41,2.59,2.59,0,0,0-.22,1.07"/><polygon class="cls-2" points="77.13 12.4 79.48 18.31 81.83 12.4 84.58 12.4 80.48 22.11 78.47 22.11 74.39 12.4 77.13 12.4"/><polygon class="cls-2" points="91.13 14.54 88.12 14.54 88.12 16.16 90.96 16.16 90.96 18.3 88.12 18.3 88.12 19.98 91.13 19.98 91.13 22.11 85.6 22.11 85.6 12.4 91.13 12.4 91.13 14.54"/><path class="cls-2" d="M92.94,12.4h3.74a4.41,4.41,0,0,1,1.86.4,5.07,5.07,0,0,1,1.52,1.06,4.94,4.94,0,0,1,1,1.55,4.76,4.76,0,0,1,0,3.69,4.92,4.92,0,0,1-1,1.55,5,5,0,0,1-1.52,1.07,4.44,4.44,0,0,1-1.87.4H92.94ZM95.47,20H96a3.15,3.15,0,0,0,1.17-.21,2.49,2.49,0,0,0,.87-.57,2.42,2.42,0,0,0,.54-.86,3.05,3.05,0,0,0,.19-1.09,3,3,0,0,0-.19-1.08,2.42,2.42,0,0,0-1.42-1.43A3.09,3.09,0,0,0,96,14.54h-.58Z"/><path class="cls-2" d="M19.43,6.47c-.71.94-1.38,1.92-2.08,2.88s-1.34,1.95-2,2.93c-1.32,2-2.57,4-3.74,6l-.11.16a1.68,1.68,0,0,1-2.87-.13L3.13,8.25A1.18,1.18,0,0,1,5.14,7l4.95,7.26c.85-1.29,1.72-2.56,2.63-3.81.72-1,1.41-2,2.17-2.92s1.48-1.93,2.24-2.87l2.35-2.79.21-.25A5.83,5.83,0,0,0,15.94.27H5.85A5.85,5.85,0,0,0,0,6.12V16.21a5.85,5.85,0,0,0,5.85,5.85H15.94a5.85,5.85,0,0,0,5.85-5.85V6.12A5.82,5.82,0,0,0,21.37,4Z"/></g></g></svg>